<?xml version="1.0" encoding="UTF-8"?>
<svg id="Layer_2" data-name="Layer 2" xmlns="http://www.w3.org/2000/svg" xmlns:xlink="http://www.w3.org/1999/xlink" viewBox="0 0 592.868 661.554">
  <defs>
    <radialGradient id="radial-gradient" cx="296.434" cy="330.777" fx="296.434" fy="330.777" r="314.075" gradientUnits="userSpaceOnUse">
      <stop offset="0" stop-color="#57faab"/>
      <stop offset="1" stop-color="#000" stop-opacity="0"/>
    </radialGradient>
  </defs>
  <g id="OBJECTS">
    <g>
      <rect width="592.868" height="661.554" style="fill: url(#radial-gradient); opacity: .43;"/>
      <g>
        <g>
          <g style="fill: none; opacity: .19;">
            <polygon points="162.393 288.397 302.623 218.172 443.861 290.68 302.623 360.334 162.393 288.397" style="fill: #57faab;"/>
          </g>
          <path d="m162.393,429.417c0,1.713,140.23,71.937,140.23,71.937v-141.02l-140.23-71.937v141.02Z" style="fill: #0e0f10;"/>
          <path d="m443.861,290.68v141.02s-141.238,72.508-141.238,69.653v-141.02l141.238-69.654Z" style="fill: #0e0f10;"/>
          <polygon points="232.807 466.027 232.21 466.027 232.21 324.181 232.375 324.098 373.109 254.159 373.375 254.694 232.807 324.55 232.807 466.027" style="fill: #57faab;"/>
          <polygon points="373.541 466.027 372.944 466.027 372.944 324.55 232.375 254.694 232.641 254.159 373.541 324.181 373.541 466.027" style="fill: #57faab;"/>
          <g>
            <g>
              <path d="m249.245,457.719c-.33,0-.597-.267-.597-.597v-19.418c0-.33.267-.597.597-.597s.597.267.597.597v19.418c0,.33-.267.597-.597.597Z" style="fill: #57faab;"/>
              <path d="m253.409,459.752c-.33,0-.597-.267-.597-.597v-19.418c0-.33.267-.597.597-.597s.597.267.597.597v19.418c0,.33-.267.597-.597.597Z" style="fill: #57faab;"/>
              <path d="m257.572,461.855c-.33,0-.597-.267-.597-.597v-19.418c0-.33.267-.597.597-.597s.597.267.597.597v19.418c0,.33-.267.597-.597.597Z" style="fill: #57faab;"/>
              <path d="m261.734,463.959c-.33,0-.597-.267-.597-.597v-19.418c0-.33.267-.597.597-.597s.597.267.597.597v19.418c0,.33-.267.597-.597.597Z" style="fill: #57faab;"/>
              <path d="m265.897,466.063c-.33,0-.597-.267-.597-.597v-19.418c0-.33.267-.597.597-.597s.597.267.597.597v19.418c0,.33-.267.597-.597.597Z" style="fill: #57faab;"/>
              <path d="m270.061,468.095c-.33,0-.597-.267-.597-.597v-19.418c0-.33.267-.597.597-.597s.597.267.597.597v19.418c0,.33-.267.597-.597.597Z" style="fill: #57faab;"/>
              <path d="m274.224,470.27c-.33,0-.597-.267-.597-.597v-19.418c0-.33.267-.597.597-.597s.597.267.597.597v19.418c0,.33-.267.597-.597.597Z" style="fill: #57faab;"/>
              <path d="m278.387,472.374c-.33,0-.597-.267-.597-.597v-19.418c0-.33.267-.597.597-.597s.597.267.597.597v19.418c0,.33-.267.597-.597.597Z" style="fill: #57faab;"/>
              <path d="m282.55,474.335c-.33,0-.597-.267-.597-.597v-19.418c0-.33.267-.597.597-.597s.597.267.597.597v19.418c0,.33-.267.597-.597.597Z" style="fill: #57faab;"/>
              <path d="m286.712,476.795c-.33,0-.597-.267-.597-.597v-19.418c0-.33.267-.597.597-.597s.597.267.597.597v19.418c0,.33-.267.597-.597.597Z" style="fill: #57faab;"/>
            </g>
            <g>
              <path d="m251.327,458.557c-.33,0-.597-.267-.597-.597v-19.418c0-.33.267-.597.597-.597s.597.267.597.597v19.418c0,.33-.267.597-.597.597Z" style="fill: #57faab;"/>
              <path d="m255.489,460.59c-.33,0-.597-.267-.597-.597v-19.418c0-.33.267-.597.597-.597s.597.267.597.597v19.418c0,.33-.267.597-.597.597Z" style="fill: #57faab;"/>
              <path d="m259.653,462.693c-.33,0-.597-.267-.597-.597v-19.417c0-.33.267-.597.597-.597s.597.267.597.597v19.417c0,.33-.267.597-.597.597Z" style="fill: #57faab;"/>
              <path d="m263.816,464.797c-.33,0-.597-.267-.597-.597v-19.418c0-.33.267-.597.597-.597s.597.267.597.597v19.418c0,.33-.267.597-.597.597Z" style="fill: #57faab;"/>
              <path d="m267.979,466.901c-.33,0-.597-.267-.597-.597v-19.418c0-.33.267-.597.597-.597s.597.267.597.597v19.418c0,.33-.267.597-.597.597Z" style="fill: #57faab;"/>
              <path d="m272.142,468.933c-.33,0-.597-.267-.597-.597v-19.418c0-.33.267-.597.597-.597s.597.267.597.597v19.418c0,.33-.267.597-.597.597Z" style="fill: #57faab;"/>
              <path d="m276.305,471.108c-.33,0-.597-.267-.597-.597v-19.418c0-.33.267-.597.597-.597s.597.267.597.597v19.418c0,.33-.267.597-.597.597Z" style="fill: #57faab;"/>
              <path d="m280.468,473.212c-.33,0-.597-.267-.597-.597v-19.418c0-.33.267-.597.597-.597s.597.267.597.597v19.418c0,.33-.267.597-.597.597Z" style="fill: #57faab;"/>
              <path d="m284.632,475.173c-.33,0-.597-.267-.597-.597v-19.418c0-.33.267-.597.597-.597s.597.267.597.597v19.418c0,.33-.267.597-.597.597Z" style="fill: #57faab;"/>
              <path d="m288.794,477.633c-.33,0-.597-.267-.597-.597v-19.418c0-.33.267-.597.597-.597s.597.267.597.597v19.418c0,.33-.267.597-.597.597Z" style="fill: #57faab;"/>
            </g>
          </g>
          <path d="m172.166,354.944c0,.543,44.453,22.804,44.453,22.804v-44.703l-44.453-22.804v44.703Z" style="fill: #57faab;"/>
          <g>
            <path d="m175.507,330.777c0,.461,37.77,19.375,37.77,19.375" style="fill: none; stroke: #222; stroke-miterlimit: 10; stroke-width: .5px;"/>
            <line x1="213.277" y1="340.845" x2="175.507" y2="321.469" style="fill: none; stroke: #222; stroke-miterlimit: 10; stroke-width: .5px;"/>
            <path d="m175.507,349.392c0,.461,37.77,19.375,37.77,19.375" style="fill: none; stroke: #222; stroke-miterlimit: 10; stroke-width: .5px;"/>
            <line x1="213.277" y1="359.46" x2="175.507" y2="340.084" style="fill: none; stroke: #222; stroke-miterlimit: 10; stroke-width: .5px;"/>
          </g>
        </g>
        <g>
          <circle cx="306.324" cy="204.258" r="86.423" style="fill: #0e0f10; stroke: #57faab; stroke-miterlimit: 10; stroke-width: 2px;"/>
          <path d="m275.135,205.713c2.057,1.754,4.113,3.508,6.17,5.262,3.772,3.216,7.543,6.433,11.315,9.649,2.917,2.442,5.882,4.843,8.735,7.338,2.415,2.111,5.488,1.863,7.807.024,2.958-2.345,5.693-4.896,8.524-7.357,3.886-3.314,7.772-6.629,11.659-9.943h0c2.971-2.534,5.942-5.068,8.913-7.602.427-.313.849-.631,1.281-.938,1.577-1.122,1.94-2.853.008-4.26-1.164-.847-2.181-1.84-3.275-2.758-.978-.82-2.779-.993-3.726-.219-2.936,2.4-5.817,4.849-8.719,7.278-2.857,2.436-5.713,4.872-8.57,7.308-1.416,1.143-2.832,2.286-4.509,3.64v-7.135c0-5.847,0-11.695,0-17.542v-12.864c0-3.021,0-6.042,0-9.063,0-2.436,0-4.873,0-7.31v-7.017c.019-1.458.08-2.918.045-4.375-.038-1.587-1.202-2.586-3.06-2.633-1.71-.042-3.423-.032-5.134,0-1.732.033-2.71.85-2.747,2.34-.039,1.555.022,3.111.039,4.667v7.017c0,2.436,0,4.873,0,7.31,0,3.021,0,6.042,0,9.063,0,4.288,0,8.576,0,12.864,0,5.847,0,11.695,0,17.542v6.978c-.143.035-.287.07-.43.105-1.041-.847-2.082-1.693-3.123-2.54h0c-2.374-2.009-4.748-4.018-7.123-6.026-3.77-3.166-7.517-6.354-11.324-9.487-1.162-.956-2.582-.841-3.728.003-1.422,1.046-2.881,2.137-3.924,3.442-.515.645-.585,2.096-.072,2.687,1.437,1.655,3.283,3.053,4.968,4.552Z" style="fill: #57faab;"/>
          <line x1="260.324" y1="240.837" x2="347.953" y2="240.837" style="fill: none; stroke: #57faab; stroke-miterlimit: 10; stroke-width: 8px;"/>
        </g>
      </g>
    </g>
  </g>
</svg>