<?xml version="1.0" encoding="UTF-8"?>
<svg id="Layer_2" data-name="Layer 2" xmlns="http://www.w3.org/2000/svg" viewBox="0 0 351.33 351.33">
  <g id="Layer_1-2" data-name="Layer 1">
    <path d="M243.78,318.4c-16.78,20.61-41.43,32.81-68.09,32.93l-.17-168.23c-2.31,21.98-12.28,42.1-28.63,57.13-32.04,29.45-79.93,31.12-113.8,3.68C12.62,227.34.06,202.58,0,175.68l168.22-.17c-21.43-2.25-41.12-11.82-56.01-27.44-32.18-33.75-32.52-85.78-.6-119.86C128.06,10.67,150.96.05,175.65,0l.17,167.5c2.56-21.57,12.3-41.22,28.21-56.03,33.97-31.6,85.75-31.48,119.46.49,17.33,16.43,27.8,39.16,27.84,63.68l-167.51.17c22.13,2.65,42.2,12.75,57.14,29.43,28.7,32.03,30.25,79.46,2.82,113.16Z"/>
  </g>
</svg>